#!OML:ASF X:\für Bonn\!DataBase\2005_08_11_Bastian_Final\c3d\Bastian.ASF
:FULLY-SPECIFIED
:DEGREES
211
root -0.0447278 17.5396 -0.182778 154.184 -58.2149 -166.924
lowerback 11.4324 -4.8954 4.65334
upperback 3.02589 -6.15468 3.91499
thorax -3.24666 -3.22142 2.35737
lowerneck 5.32468 -16.3271 -4.2601
upperneck -11.87 -21.4272 14.8788
head -2.2721 -11.3292 5.50825
rclavicle -2.15085e-013 7.71285e-014
rhumerus 17.4598 0.884936 -22.319
rradius 93.1182
rwrist -252.038
rhand 3.31755 -21.9017
rfingers 7.12502
rthumb 28.764 -409.706
lclavicle -2.15085e-013 7.71285e-014
lhumerus 427.799 -21.4583 -308.534
lradius 75.3635
lwrist -138.458
lhand -22.8439 26.3996
lfingers 7.12502
lthumb 3.59387 56.349
rfemur 2.47819 -5.6792 28.3431
rtibia 34.5347
rfoot -17.2485 -16.9463
rtoes 7.25282
lfemur 2.55199 10.6995 1.35948
ltibia 47.514
lfoot -2.98875 4.8113
ltoes -41.527
212
root -0.0204067 17.5136 -0.153995 153.784 -57.8583 -166.797
lowerback 11.8043 -4.83359 4.7902
upperback 3.22472 -6.05864 3.93503
thorax -3.25146 -3.18176 2.31371
lowerneck 5.21101 -16.3294 -4.1597
upperneck -12.0701 -21.4108 14.972
head -2.3152 -11.3357 5.52478
rclavicle 3.63776e-014 -4.92986e-014
rhumerus 15.2585 2.56701 -23.3422
rradius 95.433
rwrist -252.263
rhand 2.63897 -22.2954
rfingers 7.12502
rthumb 28.1155 -410.208
lclavicle 3.63776e-014 -4.92986e-014
lhumerus 425.927 -22.5576 -308.22
lradius 77.1967
lwrist -138.504
lhand -23.6886 26.2458
lfingers 7.12502
lthumb 2.77813 56.2075
rfemur 2.56199 -6.35998 28.273
rtibia 34.606
rfoot -16.8778 -16.3835
rtoes 6.29414
lfemur 2.61208 10.4742 1.45178
ltibia 48.0319
lfoot -3.29423 4.75757
ltoes -41.321
213
root 0.00488894 17.4868 -0.126225 153.363 -57.4763 -166.626
lowerback 12.1591 -4.7698 4.91815
upperback 3.41643 -5.96258 3.99113
thorax -3.24851 -3.14317 2.31048
lowerneck 5.09298 -16.3354 -4.10029
upperneck -12.2477 -21.4034 15.0457
head -2.34784 -11.343 5.53842
rclavicle 6.30644e-014 -1.82882e-014
rhumerus 13.0657 4.40235 -24.3728
rradius 97.6048
rwrist -252.565
rhand 1.88629 -22.689
rfingers 7.12502
rthumb 27.3958 -410.717
lclavicle 6.30644e-014 -1.82882e-014
lhumerus 423.959 -23.723 -307.863
lradius 78.995
lwrist -138.589
lhand -24.386 26.0052
lfingers 7.12502
lthumb 2.1046 55.9746
rfemur 2.62503 -6.97644 28.2663
rtibia 34.6774
rfoot -16.521 -15.8763
rtoes 5.23761
lfemur 2.6695 10.234 1.6072
ltibia 48.5617
lfoot -3.64946 4.61913
ltoes -40.6904
214
root 0.0294531 17.4602 -0.0975605 152.99 -57.0583 -166.46
lowerback 12.465 -4.71204 5.06769
upperback 3.59398 -5.87363 4.03825
thorax -3.23596 -3.10767 2.28273
lowerneck 5.03915 -16.3233 -4.10064
upperneck -12.4261 -21.375 15.1857
head -2.37846 -11.3434 5.58329
rclavicle 1.13904e-013 -5.40694e-014
rhumerus 10.8392 6.3736 -25.5794
rradius 99.6118
rwrist -252.752
rhand 1.02926 -23.0593
rfingers 7.12502
rthumb 26.5758 -411.215
lclavicle 1.13904e-013 -5.40694e-014
lhumerus 421.888 -24.93 -307.553
lradius 80.7711
lwrist -138.714
lhand -24.9155 25.6563
lfingers 7.12502
lthumb 1.59317 55.6301
rfemur 2.64863 -7.54639 28.2776
rtibia 34.7554
rfoot -16.2071 -15.3828
rtoes 4.1859
lfemur 2.72062 9.94576 1.76628
ltibia 49.0867
lfoot -4.00694 4.4381
ltoes -39.4219
215
root 0.0555396 17.4354 -0.0681792 152.681 -56.6169 -166.308
lowerback 12.7124 -4.64487 5.19916
upperback 3.77583 -5.78009 4.11084
thorax -3.18189 -3.07038 2.28421
lowerneck 4.93682 -16.3083 -4.09278
upperneck -12.6089 -21.3423 15.2717
head -2.41037 -11.3378 5.60865
rclavicle 7.21837e-014 4.21423e-014
rhumerus 8.57043 8.43579 -26.9011
rradius 101.474
rwrist -252.862
rhand 0.13686 -23.4052
rfingers 7.12502
rthumb 25.7215 -411.687
lclavicle 7.21837e-014 4.21423e-014
lhumerus 419.825 -26.1683 -307.276
lradius 82.4834
lwrist -138.935
lhand -25.1808 25.225
lfingers 7.12502
lthumb 1.33691 55.2005
rfemur 2.61281 -8.0478 28.3198
rtibia 34.8187
rfoot -15.8706 -14.915
rtoes 3.25855
lfemur 2.72524 9.61619 1.91698
ltibia 49.618
lfoot -4.3016 4.16136
ltoes -37.6821
216
root 0.0806552 17.4119 -0.0368738 152.449 -56.1422 -166.18
lowerback 12.9088 -4.57969 5.36704
upperback 3.92987 -5.6844 4.16289
thorax -3.13437 -3.03071 2.24055
lowerneck 4.88911 -16.2866 -4.10476
upperneck -12.7919 -21.3019 15.3909
head -2.44569 -11.3312 5.65077
rclavicle -3.83157e-014 4.85035e-014
rhumerus 6.18509 10.6058 -28.4448
rradius 103.149
rwrist -252.777
rhand -0.795518 -23.6384
rfingers 7.12502
rthumb 24.8282 -412.046
lclavicle -3.83157e-014 4.85035e-014
lhumerus 417.703 -27.4765 -307.012
lradius 84.1038
lwrist -139.236
lhand -25.3341 24.7874
lfingers 7.12502
lthumb 1.18889 54.7639
rfemur 2.53228 -8.45784 28.3778
rtibia 34.8735
rfoot -15.5762 -14.4459
rtoes 2.33678
lfemur 2.70134 9.30054 2.05279
ltibia 50.1431
lfoot -4.50663 3.79567
ltoes -35.9937
217
root 0.107148 17.3911 -0.00485744 152.262 -55.6433 -166.069
lowerback 13.0818 -4.51103 5.50147
upperback 4.0886 -5.59203 4.24348
thorax -3.06261 -2.99352 2.24272
lowerneck 4.80639 -16.2557 -4.15401
upperneck -12.9627 -21.2517 15.5074
head -2.46889 -11.317 5.69233
rclavicle 6.42074e-014 3.81667e-014
rhumerus 3.81893 12.8315 -30.0864
rradius 104.608
rwrist -252.604
rhand -1.65873 -23.742
rfingers 7.12502
rthumb 24.0007 -412.262
lclavicle 6.42074e-014 3.81667e-014
lhumerus 415.484 -28.788 -306.564
lradius 85.6029
lwrist -139.684
lhand -25.3758 24.3736
lfingers 7.12502
lthumb 1.14858 54.3502
rfemur 2.42893 -8.75628 28.4678
rtibia 34.9099
rfoot -15.3272 -13.9892
rtoes 1.67231
lfemur 2.65414 8.96573 2.1814
ltibia 50.6718
lfoot -4.67855 3.25749
ltoes -34.5829
218
root 0.132765 17.3696 0.0286893 152.107 -55.1085 -166.004
lowerback 13.253 -4.4309 5.63156
upperback 4.25093 -5.48599 4.31685
thorax -2.98584 -2.94951 2.23691
lowerneck 4.73762 -16.223 -4.20538
upperneck -13.1327 -21.1998 15.6123
head -2.49544 -11.3014 5.73254
rclavicle -1.96548e-014 3.89618e-014
rhumerus 1.40639 15.0719 -31.8622
rradius 105.791
rwrist -252.415
rhand -2.46844 -23.7014
rfingers 7.12502
rthumb 23.224 -412.321
lclavicle -1.96548e-014 3.89618e-014
lhumerus 413.131 -30.1454 -305.905
lradius 86.9837
lwrist -140.255
lhand -25.4071 23.9464
lfingers 7.12502
lthumb 1.11834 53.9232
rfemur 2.3499 -8.98788 28.5419
rtibia 34.9406
rfoot -15.1362 -13.4957
rtoes 1.27905
lfemur 2.65437 8.61304 2.29023
ltibia 51.197
lfoot -4.84737 2.5543
ltoes -33.3261
219
root 0.158625 17.3474 0.0638259 151.953 -54.5324 -165.897
lowerback 13.3998 -4.35115 5.81905
upperback 4.39641 -5.37337 4.38839
thorax -2.91802 -2.90183 2.19528
lowerneck 4.71532 -16.187 -4.24286
upperneck -13.3268 -21.1412 15.7141
head -2.5392 -11.285 5.77707
rclavicle 1.00759e-013 -4.29375e-014
rhumerus -1.05204 17.3146 -33.8112
rradius 106.718
rwrist -252.159
rhand -3.12835 -23.5484
rfingers 7.12502
rthumb 22.5908 -412.246
lclavicle 1.00759e-013 -4.29375e-014
lhumerus 410.662 -31.5376 -305.119
lradius 88.1608
lwrist -140.849
lhand -25.3854 23.6288
lfingers 7.12502
lthumb 1.13931 53.6055
rfemur 2.22912 -9.23415 28.6524
rtibia 34.9785
rfoot -14.9312 -12.9617
rtoes 0.974479
lfemur 2.63819 8.22651 2.42401
ltibia 51.7282
lfoot -5.01256 1.68493
ltoes -32.4393
220
root 0.184721 17.325 0.100891 151.871 -53.95 -165.856
lowerback 13.5208 -4.2741 5.96796
upperback 4.55602 -5.27381 4.45419
thorax -2.81815 -2.86044 2.16753
lowerneck 4.64475 -16.1355 -4.30867
upperneck -13.4907 -21.0652 15.8392
head -2.56205 -11.2587 5.8247
rclavicle -3.11843e-015 3.02153e-014
rhumerus -3.51104 19.4922 -35.9251
rradius 107.368
rwrist -251.949
rhand -3.71004 -23.2229
rfingers 7.12502
rthumb 22.0324 -411.988
lclavicle -3.11843e-015 3.02153e-014
lhumerus 408.147 -32.8787 -304.396
lradius 89.1466
lwrist -141.317
lhand -25.2838 23.512
lfingers 7.12502
lthumb 1.23746 53.4881
rfemur 2.08419 -9.50378 28.7016
rtibia 35.0452
rfoot -14.7893 -12.3062
rtoes 0.867545
lfemur 2.63421 7.80219 2.50284
ltibia 52.2514
lfoot -5.22651 0.737411
ltoes -31.9496
221
root 0.210077 17.3018 0.139114 151.814 -53.3412 -165.838
lowerback 13.6501 -4.18882 6.11993
upperback 4.6934 -5.15912 4.5154
thorax -2.74632 -2.81108 2.13278
lowerneck 4.63457 -16.0927 -4.37567
upperneck -13.6576 -21.0009 15.9469
head -2.59637 -11.2382 5.87382
rclavicle -5.01372e-014 -3.81667e-014
rhumerus -6.07428 21.6205 -38.2053
rradius 107.776
rwrist -251.755
rhand -4.14988 -22.8332
rfingers 7.12502
rthumb 21.61 -411.647
lclavicle -5.01372e-014 -3.81667e-014
lhumerus 405.495 -34.2449 -303.588
lradius 89.8763
lwrist -141.683
lhand -25.1826 23.571
lfingers 7.12502
lthumb 1.33524 53.5466
rfemur 1.91993 -9.96332 28.6752
rtibia 35.1523
rfoot -14.6471 -11.4415
rtoes 0.636533
lfemur 2.66659 7.34003 2.56236
ltibia 52.7613
lfoot -5.4738 -0.224087
ltoes -31.6694
